# xmcd
#
# Track frame offsets:
#   150
#   19750
#   38090
#   58622
#
# Disc length: 1182 seconds
#
# Revision: 0
# Processed by: cddbd v1.5.2PL0 Copyright (c) Steve Scherf et al.
# Submitted via: Precision_Digital_Audio_Extractor 1.60.0
#
DISCID=29049c04
DTITLE=Mariah Carrey - Hero
DYEAR=1993
DGENRE=Blues
TTITLE0=hero
TTITLE1=dream lover (Def Club Edit)
TTITLE2=dream lover (Theo's Club Joint)
TTITLE3=dream lover (Def Tribal Mix)
EXTD=
EXTT0=
EXTT1=
EXTT2=
EXTT3=
PLAYORDER=
